<svg width="90" height="90" viewBox="0 0 90 90" fill="none" xmlns="http://www.w3.org/2000/svg">
<g clip-path="url(#clip0)">
<path d="M45 88.75C69.1625 88.75 88.75 69.1625 88.75 45C88.75 20.8375 69.1625 1.25 45 1.25C20.8375 1.25 1.25 20.8375 1.25 45C1.25 69.1625 20.8375 88.75 45 88.75Z" stroke="white" stroke-width="2.5"/>
<path fill-rule="evenodd" clip-rule="evenodd" d="M62.7649 34.3425C62.7649 44.1531 54.8118 52.1062 45.0011 52.1062C35.1905 52.1062 27.2374 44.1531 27.2374 34.3425C27.2374 24.5318 35.1905 16.5787 45.0011 16.5787C54.8118 16.5787 62.7649 24.5318 62.7649 34.3425ZM34.4324 88.75C37.8934 89.5812 41.4405 90.0008 44.9999 90C48.5593 90.0016 52.1063 89.5829 55.5674 88.7525C58.9171 87.9454 62.1623 86.7541 65.2387 85.2025C71.2964 82.1339 76.5891 77.7463 80.7274 72.3625C76.526 67.2146 71.2364 63.0614 65.2387 60.2013C62.1489 58.7269 58.9054 57.5992 55.5674 56.8388C48.6105 55.263 41.3893 55.263 34.4324 56.8388C31.0944 57.5997 27.8509 58.7278 24.7612 60.2025C18.7633 63.0624 13.474 67.2162 9.27368 72.365C13.4124 77.7475 18.7051 82.1338 24.7624 85.2013C27.8385 86.7523 31.0833 87.9431 34.4324 88.75Z" fill="#959799"/>
</g>
<defs>
<clipPath id="clip0">
<rect width="90" height="90" fill="white"/>
</clipPath>
</defs>
</svg>
